<?xml version="1.0" encoding="UTF-8" standalone="no"?>
<!-- Generator: Adobe Illustrator 23.0.1, SVG Export Plug-In . SVG Version: 6.00 Build 0)  -->

<svg
   xmlns:dc="http://purl.org/dc/elements/1.1/"
   xmlns:cc="http://creativecommons.org/ns#"
   xmlns:rdf="http://www.w3.org/1999/02/22-rdf-syntax-ns#"
   xmlns:svg="http://www.w3.org/2000/svg"
   xmlns="http://www.w3.org/2000/svg"
   xmlns:sodipodi="http://sodipodi.sourceforge.net/DTD/sodipodi-0.dtd"
   xmlns:inkscape="http://www.inkscape.org/namespaces/inkscape"
   version="1.1"
   x="0px"
   y="0px"
   width="24px"
   height="24px"
   viewBox="0 0 24 24"
   enable-background="new 0 0 24 24"
   xml:space="preserve"
   id="svg8"
   sodipodi:docname="eco-line-24px.svg"
   inkscape:version="0.92.4 (5da689c313, 2019-01-14)"><metadata
   id="metadata14"><rdf:RDF><cc:Work
       rdf:about=""><dc:format>image/svg+xml</dc:format><dc:type
         rdf:resource="http://purl.org/dc/dcmitype/StillImage" /></cc:Work></rdf:RDF></metadata><defs
   id="defs12" /><sodipodi:namedview
   pagecolor="#ffffff"
   bordercolor="#666666"
   borderopacity="1"
   objecttolerance="10"
   gridtolerance="10"
   guidetolerance="10"
   inkscape:pageopacity="0"
   inkscape:pageshadow="2"
   inkscape:window-width="690"
   inkscape:window-height="480"
   id="namedview10"
   showgrid="false"
   inkscape:zoom="9.8333333"
   inkscape:cx="12"
   inkscape:cy="12"
   inkscape:window-x="0"
   inkscape:window-y="0"
   inkscape:window-maximized="0"
   inkscape:current-layer="svg8" />
<g
   id="Bounding_Box">
	<rect
   fill="none"
   width="24"
   height="24"
   id="rect2" />
</g>
<g
   id="Master">
	<path
   d="M6.05,8.05c-2.73,2.73-2.73,7.17,0,9.9C7.42,19.32,9.21,20,11,20s3.58-0.68,4.95-2.05C19.43,14.47,20,4,20,4   S9.53,4.57,6.05,8.05z M14.54,16.54C13.59,17.48,12.34,18,11,18c-0.89,0-1.73-0.25-2.48-0.68c0.92-2.88,2.62-5.41,4.88-7.32   c-2.63,1.36-4.84,3.46-6.37,6c-1.48-1.96-1.35-4.75,0.44-6.54C9.21,7.72,14.04,6.65,17.8,6.2C17.35,9.96,16.28,14.79,14.54,16.54z"
   id="path5"
   style="fill:#ffffff" />
</g>
</svg>