<?xml version="1.0" encoding="UTF-8" standalone="no"?>
<svg
   xmlns:dc="http://purl.org/dc/elements/1.1/"
   xmlns:cc="http://creativecommons.org/ns#"
   xmlns:rdf="http://www.w3.org/1999/02/22-rdf-syntax-ns#"
   xmlns:svg="http://www.w3.org/2000/svg"
   xmlns="http://www.w3.org/2000/svg"
   xmlns:sodipodi="http://sodipodi.sourceforge.net/DTD/sodipodi-0.dtd"
   xmlns:inkscape="http://www.inkscape.org/namespaces/inkscape"
   width="24"
   height="24"
   viewBox="0 0 24 24"
   version="1.1"
   id="svg6"
   sodipodi:docname="restore-24px.svg"
   inkscape:version="0.92.4 (5da689c313, 2019-01-14)">
  <metadata
     id="metadata12">
    <rdf:RDF>
      <cc:Work
         rdf:about="">
        <dc:format>image/svg+xml</dc:format>
        <dc:type
           rdf:resource="http://purl.org/dc/dcmitype/StillImage" />
      </cc:Work>
    </rdf:RDF>
  </metadata>
  <defs
     id="defs10" />
  <sodipodi:namedview
     pagecolor="#ffffff"
     bordercolor="#666666"
     borderopacity="1"
     objecttolerance="10"
     gridtolerance="10"
     guidetolerance="10"
     inkscape:pageopacity="0"
     inkscape:pageshadow="2"
     inkscape:window-width="716"
     inkscape:window-height="480"
     id="namedview8"
     showgrid="false"
     inkscape:zoom="9.8333333"
     inkscape:cx="12"
     inkscape:cy="12"
     inkscape:window-x="0"
     inkscape:window-y="0"
     inkscape:window-maximized="0"
     inkscape:current-layer="svg6" />
  <path
     fill="none"
     d="M0 0h24v24H0V0z"
     id="path2"
     style=""
     inkscape:export-xdpi="64"
     inkscape:export-ydpi="64" />
  <path
     d="M13.25 3c-5.09-.14-9.26 3.94-9.26 9H2.2c-.45 0-.67.54-.35.85l2.79 2.8c.2.2.51.2.71 0l2.79-2.8c.32-.31.09-.85-.35-.85h-1.8c0-3.9 3.18-7.05 7.1-7 3.72.05 6.85 3.18 6.9 6.9.05 3.91-3.1 7.1-7 7.1-1.61 0-3.1-.55-4.28-1.48-.4-.31-.96-.28-1.32.08-.42.43-.39 1.13.08 1.5 1.52 1.19 3.44 1.9 5.52 1.9 5.05 0 9.14-4.17 9-9.26-.13-4.69-4.05-8.61-8.74-8.74zm-.51 5c-.41 0-.75.34-.75.75v3.68c0 .35.19.68.49.86l3.12 1.85c.36.21.82.09 1.03-.26.21-.36.09-.82-.26-1.03l-2.88-1.71v-3.4c0-.4-.33-.74-.75-.74z"
     id="path4"
     style="fill:#4d4d4d;"
     inkscape:export-xdpi="64"
     inkscape:export-ydpi="64" />
</svg>
